name GIL04_free3.mot
datacolumns 153
datarows 4
range 0.61666656 0.64166659
endheader

                time	           pelvis_tx	           pelvis_ty	           pelvis_tz	         pelvis_tilt	         pelvis_list	     pelvis_rotation	       hip_flexion_r	     hip_adduction_r	      hip_rotation_r	        knee_angle_r	       ankle_angle_r	    subtalar_angle_r	         mtp_angle_r	       hip_flexion_l	     hip_adduction_l	      hip_rotation_l	        knee_angle_l	       ankle_angle_l	    subtalar_angle_l	         mtp_angle_l	    lumbar_extension	      lumbar_bending	     lumbar_rotation	     ground_force_vx	     ground_force_vy	     ground_force_vz	     ground_force_px	     ground_force_py	     ground_force_pz	     ground_force_vx	     ground_force_vy	     ground_force_vz	     ground_force_px	     ground_force_py	     ground_force_pz	     ground_torque_x	     ground_torque_y	     ground_torque_z	     ground_torque_x	     ground_torque_y	     ground_torque_z	    ground_marker_px	    ground_marker_py	    ground_marker_pz	    ground_marker_px	    ground_marker_py	    ground_marker_pz	    ground_marker_px	    ground_marker_py	    ground_marker_pz	    ground_marker_px	    ground_marker_py	    ground_marker_pz	    ground_marker_px	    ground_marker_py	    ground_marker_pz	    ground_marker_px	    ground_marker_py	    ground_marker_pz	    ground_marker_px	    ground_marker_py	    ground_marker_pz	    ground_marker_px	    ground_marker_py	    ground_marker_pz	    ground_marker_px	    ground_marker_py	    ground_marker_pz	    ground_marker_px	    ground_marker_py	    ground_marker_pz	    ground_marker_px	    ground_marker_py	    ground_marker_pz	    ground_marker_px	    ground_marker_py	    ground_marker_pz	    ground_marker_px	    ground_marker_py	    ground_marker_pz	    ground_marker_px	    ground_marker_py	    ground_marker_pz	    ground_marker_px	    ground_marker_py	    ground_marker_pz	    ground_marker_px	    ground_marker_py	    ground_marker_pz	    ground_marker_px	    ground_marker_py	    ground_marker_pz	    ground_marker_px	    ground_marker_py	    ground_marker_pz	    ground_marker_px	    ground_marker_py	    ground_marker_pz	    ground_marker_px	    ground_marker_py	    ground_marker_pz	    ground_marker_px	    ground_marker_py	    ground_marker_pz	    ground_marker_px	    ground_marker_py	    ground_marker_pz	    ground_marker_px	    ground_marker_py	    ground_marker_pz	    ground_marker_px	    ground_marker_py	    ground_marker_pz	    ground_marker_px	    ground_marker_py	    ground_marker_pz	    ground_marker_px	    ground_marker_py	    ground_marker_pz	    ground_marker_px	    ground_marker_py	    ground_marker_pz	    ground_marker_px	    ground_marker_py	    ground_marker_pz	    ground_marker_px	    ground_marker_py	    ground_marker_pz	    ground_marker_px	    ground_marker_py	    ground_marker_pz	    ground_marker_px	    ground_marker_py	    ground_marker_pz	    ground_marker_px	    ground_marker_py	    ground_marker_pz	    ground_marker_px	    ground_marker_py	    ground_marker_pz	    ground_marker_px	    ground_marker_py	    ground_marker_pz	    ground_marker_px	    ground_marker_py	    ground_marker_pz	    ground_marker_px	    ground_marker_py	    ground_marker_pz	    ground_marker_px	    ground_marker_py	    ground_marker_pz	
          0.61666656	          1.73372936	          0.72215277	         -0.20216331	         -2.01904488	         -2.72124600	          5.18326330	         32.14822388	          4.67491007	         -3.83156776	        -16.35368919	         -5.47711992	          0.00000000	          0.00000000	        -22.01764297	          0.82164603	         -7.76317358	        -14.49584389	         -9.65071297	          0.00000000	          0.00000000	        -14.14964867	          4.57456875	         -4.04145813	        -45.70272893	        200.01663803	          2.46557893	          1.89437915	          0.00000000	         -0.17148082	         56.66361410	        164.08072821	         -6.95816834	          1.38845093	          0.00000000	         -0.20908484	          0.00000000	          0.20987390	          0.00000000	          0.00000000	          0.18773526	          0.00000000	          1.67674494	          0.65109128	         -0.19489473	          1.67446446	          0.66046065	         -0.13152730	          1.66199422	          0.65744209	         -0.25670034	          1.83307421	          0.37972233	         -0.16713682	          1.53570843	          0.37311149	         -0.23276451	          1.90921187	          0.05955588	         -0.16756600	          1.32792222	          0.12008438	         -0.22559093	          1.73372936	          0.72215277	         -0.20216331	          1.74308205	          0.72441667	         -0.10828401	          1.72437680	          0.71988887	         -0.29604262	          1.59174418	          0.76020110	         -0.16268441	          1.58461571	          0.75796288	         -0.21762541	          1.83719325	          0.37568575	         -0.11696721	          1.52437520	          0.37404627	         -0.28145421	          1.82220447	          0.36681458	         -0.21299115	          1.54765916	          0.37410772	         -0.17964222	          1.90495825	          0.05849980	         -0.13435394	          1.32184970	          0.12411518	         -0.25931221	          1.91089821	          0.06861349	         -0.19409835	          1.32247007	          0.13109528	         -0.19692548	          1.61116123	          1.10482883	         -0.19139999	          1.69158423	          1.05513453	         -0.12886505	          1.69035184	          1.05945194	         -0.25859413	          1.68557930	          1.04641116	         -0.19660278	          1.70252478	          0.90313399	         -0.20079488	          1.80216837	          0.44449091	         -0.02922872	          1.69463813	          0.42348897	         -0.30249473	          1.79807329	          0.51627678	         -0.09096325	          1.66725826	          0.49719346	         -0.23533612	          1.84184408	          0.44769377	         -0.11426114	          1.61917078	          0.42236370	         -0.22051664	          1.87203383	          0.15236512	         -0.06081105	          1.45298803	          0.14398183	         -0.27034596	          1.86842823	          0.21084486	         -0.11960214	          1.44237876	          0.22582355	         -0.24780583	          2.00778818	          0.05540608	         -0.16441022	          1.37239337	          0.04075386	         -0.21886845	
          0.62499988	          1.74555421	          0.72308123	         -0.20135771	         -1.85081005	         -3.12244964	          4.81273270	         31.88830948	          5.51527405	         -2.82036948	        -17.85593796	         -5.53759146	          0.00000000	          0.00000000	        -21.55060959	          0.15456140	         -8.04965687	        -16.56689835	        -12.21296978	          0.00000000	          0.00000000	        -13.98794746	          4.97510386	         -3.60162139	        -43.10284848	        206.99452725	          1.49732826	          1.89643066	          0.00000000	         -0.17098763	         46.57031548	        130.32195405	         -7.61766021	          1.39138818	          0.00000000	         -0.20882204	          0.00000000	          0.04508649	          0.00000000	          0.00000000	          0.21685782	          0.00000000	          1.68855023	          0.65203094	         -0.19377078	          1.68616593	          0.66178632	         -0.13047995	          1.67428100	          0.65768242	         -0.25567904	          1.84383774	          0.38092303	         -0.16755919	          1.55050361	          0.37134901	         -0.23369555	          1.91133893	          0.05876686	         -0.16788173	          1.33637893	          0.12368453	         -0.22681040	          1.74555421	          0.72308123	         -0.20135771	          1.75446057	          0.72615653	         -0.10753710	          1.73664796	          0.72000593	         -0.29517832	          1.60301900	          0.76103276	         -0.16333278	          1.59631526	          0.75826216	         -0.21817772	          1.84885013	          0.37712187	         -0.11745253	          1.53937972	          0.37241599	         -0.28243077	          1.83694565	          0.37107193	         -0.21510722	          1.56348658	          0.37224618	         -0.17931956	          1.90777433	          0.05798662	         -0.13458106	          1.33034348	          0.12796576	         -0.26050749	          1.91243398	          0.06794315	         -0.19434305	          1.33138597	          0.13486859	         -0.19829072	          1.62217975	          1.10548592	         -0.19029574	          1.70284045	          1.05653036	         -0.12780035	          1.70145714	          1.06093538	         -0.25751311	          1.69678020	          1.04760671	         -0.19549593	          1.71495783	          0.90467858	         -0.19985014	          1.81524277	          0.44668514	         -0.02977182	          1.70938504	          0.42344216	         -0.30255780	          1.81069827	          0.51926661	         -0.09193283	          1.68166029	          0.49677253	         -0.23482803	          1.85551608	          0.45149088	         -0.11582201	          1.63438499	          0.42140940	         -0.22019786	          1.87901270	          0.15291838	         -0.06095343	          1.46203589	          0.14426181	         -0.27188870	          1.87608397	          0.21159844	         -0.11972089	          1.45371377	          0.22611582	         -0.24911065	          2.01033115	          0.05182216	         -0.16564487	          1.37534511	          0.04156956	         -0.21891692	
          0.63333327	          1.75722337	          0.72413641	         -0.20046861	         -1.66568089	         -3.51421857	          4.45512819	         31.55529022	          6.34923649	         -1.71464264	        -19.31032944	         -5.35423708	          0.00000000	          0.00000000	        -20.93545151	         -0.56211740	         -8.29811001	        -18.84136391	        -14.88040924	          0.00000000	          0.00000000	        -13.84508896	          5.22998953	         -3.07793427	        -45.97297539	        218.66771625	          0.28587202	          1.90025671	          0.00000000	         -0.17042603	         36.39614574	        100.37931303	         -7.72011026	          1.39413306	          0.00000000	         -0.20849176	          0.00000000	         -0.07138487	          0.00000000	          0.00000000	          0.22851952	          0.00000000	          1.70023990	          0.65305912	         -0.19260791	          1.69774032	          0.66320467	         -0.12935747	          1.68642628	          0.65804201	         -0.25457028	          1.85425615	          0.38199317	         -0.16792771	          1.56602752	          0.36930767	         -0.23487660	          1.91307127	          0.05811581	         -0.16814917	          1.34569860	          0.12730214	         -0.22811626	          1.75722337	          0.72413641	         -0.20046861	          1.76569593	          0.72800237	         -0.10670453	          1.74875093	          0.72027045	         -0.29423270	          1.61413991	          0.76190406	         -0.16395094	          1.60782731	          0.75863814	         -0.21869428	          1.86022985	          0.37845734	         -0.11790710	          1.55513132	          0.37052387	         -0.28365976	          1.85111880	          0.37581703	         -0.21804911	          1.57961118	          0.37025645	         -0.17869015	          1.91023350	          0.05757765	         -0.13477391	          1.33967364	          0.13184708	         -0.26178068	          1.91460907	          0.06744869	         -0.19444002	          1.34125996	          0.13867950	         -0.19969386	          1.63327694	          1.10622311	         -0.18928474	          1.71454561	          1.05814779	         -0.12670037	          1.71271241	          1.06239200	         -0.25636420	          1.70804703	          1.04890132	         -0.19442078	          1.72790742	          0.90633893	         -0.19859776	          1.82819295	          0.44889331	         -0.03022571	          1.72475851	          0.42362747	         -0.30276009	          1.82375503	          0.52244103	         -0.09327064	          1.69628966	          0.49629891	         -0.23413591	          1.86923802	          0.45547634	         -0.11805705	          1.64980948	          0.42027512	         -0.21961001	          1.88570964	          0.15345620	         -0.06104447	          1.47179723	          0.14450304	         -0.27365291	          1.88339829	          0.21246782	         -0.12023293	          1.46589732	          0.22621733	         -0.25094855	          2.01246190	          0.04876818	         -0.16676971	          1.37885928	          0.04267852	         -0.21905187	
          0.64166659	          1.76872265	          0.72526944	         -0.19954225	         -1.48093128	         -3.88032746	          4.13745403	         31.15279770	          7.13442135	         -0.62934405	        -20.67082214	         -4.94438887	          0.00000000	          0.00000000	        -20.15485382	         -1.30735362	         -8.51765633	        -21.30269814	        -17.62309074	          0.00000000	          0.00000000	        -13.71063519	          5.59807825	         -2.71381712	        -53.85476033	        238.02728494	         -1.36864628	          1.90633997	          0.00000000	         -0.16998517	         26.80281046	         74.42303013	         -7.19920985	          1.39639661	          0.00000000	         -0.20805795	          0.00000000	         -0.12810513	          0.00000000	          0.00000000	          0.21434555	          0.00000000	          1.71180367	          0.65412652	         -0.19145477	          1.70918107	          0.66465950	         -0.12820555	          1.69837284	          0.65851682	         -0.25341883	          1.86424232	          0.38287845	         -0.16821815	          1.58226097	          0.36703506	         -0.23630142	          1.91444600	          0.05757867	         -0.16837570	          1.35592198	          0.13093871	         -0.22949271	          1.76872265	          0.72526944	         -0.19954225	          1.77681160	          0.72986662	         -0.10583153	          1.76063371	          0.72067231	         -0.29325297	          1.62514722	          0.76280206	         -0.16445912	          1.61913586	          0.75909847	         -0.21910278	          1.87115717	          0.37959561	         -0.11830167	          1.57157195	          0.36842588	         -0.28512567	          1.86295021	          0.37953421	         -0.22061047	          1.59705031	          0.36719811	         -0.17923287	          1.91232944	          0.05723584	         -0.13494438	          1.34988236	          0.13575913	         -0.26311615	          1.91682625	          0.06693714	         -0.19453235	          1.35197282	          0.14264226	         -0.20113818	          1.64430034	          1.10706234	         -0.18837336	          1.72597122	          1.05952311	         -0.12563589	          1.72402883	          1.06382465	         -0.25516516	          1.71931875	          1.05021322	         -0.19339290	          1.74038553	          0.90785420	         -0.19756478	          1.84073997	          0.45094815	         -0.03054750	          1.74067092	          0.42406723	         -0.30320984	          1.83649743	          0.52535516	         -0.09470895	          1.71108782	          0.49575207	         -0.23350835	          1.88194311	          0.45872608	         -0.12040368	          1.66636884	          0.41919205	         -0.21977162	          1.89199102	          0.15391497	         -0.06110659	          1.48229408	          0.14474230	         -0.27561072	          1.89059973	          0.21309727	         -0.12050986	          1.47874665	          0.22608085	         -0.25303438	          2.01421428	          0.04623673	         -0.16774267	          1.38304782	          0.04412460	         -0.21930799	
